<?xml version="1.0" encoding="UTF-8" standalone="no"?>
<!DOCTYPE svg PUBLIC "-//W3C//DTD SVG 1.1//EN" "http://www.w3.org/Graphics/SVG/1.1/DTD/svg11.dtd">
<svg width="100%" height="100%" viewBox="0 0 1317 220" version="1.1" xmlns="http://www.w3.org/2000/svg" xmlns:xlink="http://www.w3.org/1999/xlink" xml:space="preserve" xmlns:serif="http://www.serif.com/" style="fill-rule:evenodd;clip-rule:evenodd;stroke-linejoin:round;stroke-miterlimit:2;">
    <g transform="matrix(1,0,0,1,-284.862,-1829.13)">
        <g transform="matrix(1,0,0,1,36.7431,59.0428)">
            <g transform="matrix(0.590756,0,0,0.590756,438.602,1255.22)">
                <g transform="matrix(106.577,0,0,106.544,23.961,1227.64)">
                    <rect x="0.07" y="-0.631" width="0.14" height="0.634" style="fill:white;fill-rule:nonzero;"/>
                </g>
                <g transform="matrix(106.577,0,0,106.544,53.6235,1227.64)">
                    <path d="M0.165,-0.454L0.188,-0.454L0.188,-0.366C0.22,-0.399 0.266,-0.415 0.326,-0.415C0.359,-0.415 0.388,-0.404 0.415,-0.382C0.441,-0.361 0.454,-0.332 0.454,-0.298L0.454,0.002L0.317,0.002L0.317,-0.295C0.317,-0.32 0.31,-0.339 0.294,-0.352C0.279,-0.364 0.262,-0.37 0.242,-0.369C0.223,-0.368 0.205,-0.362 0.188,-0.353L0.188,0.002L0.05,0.002L0.05,-0.399C0.074,-0.399 0.099,-0.403 0.125,-0.414C0.152,-0.424 0.165,-0.437 0.165,-0.454Z" style="fill:white;fill-rule:nonzero;"/>
                </g>
                <g transform="matrix(106.577,0,0,106.544,107.328,1227.64)">
                    <path d="M0.21,-0.434C0.25,-0.434 0.284,-0.428 0.312,-0.416C0.34,-0.403 0.356,-0.386 0.362,-0.364C0.373,-0.327 0.365,-0.303 0.338,-0.292C0.318,-0.284 0.299,-0.285 0.283,-0.297C0.272,-0.304 0.268,-0.314 0.27,-0.326C0.274,-0.359 0.27,-0.382 0.257,-0.395C0.245,-0.408 0.229,-0.415 0.21,-0.415C0.194,-0.415 0.18,-0.411 0.167,-0.402C0.155,-0.394 0.149,-0.381 0.149,-0.364C0.149,-0.341 0.161,-0.321 0.183,-0.303C0.206,-0.285 0.235,-0.267 0.271,-0.249C0.308,-0.231 0.333,-0.215 0.348,-0.203C0.37,-0.184 0.384,-0.16 0.387,-0.131C0.391,-0.103 0.385,-0.079 0.371,-0.059C0.357,-0.036 0.337,-0.019 0.309,-0.006C0.281,0.006 0.25,0.013 0.214,0.013C0.175,0.013 0.142,0.007 0.114,-0.005C0.087,-0.017 0.069,-0.034 0.06,-0.056C0.043,-0.095 0.048,-0.121 0.074,-0.134C0.094,-0.143 0.114,-0.141 0.134,-0.129C0.148,-0.12 0.154,-0.108 0.152,-0.094C0.148,-0.062 0.154,-0.04 0.171,-0.028C0.189,-0.016 0.207,-0.01 0.227,-0.012C0.247,-0.013 0.262,-0.023 0.271,-0.041C0.281,-0.058 0.284,-0.076 0.279,-0.093C0.275,-0.106 0.264,-0.12 0.244,-0.133C0.224,-0.146 0.2,-0.16 0.171,-0.174C0.143,-0.189 0.122,-0.201 0.109,-0.212C0.082,-0.233 0.064,-0.258 0.056,-0.286C0.048,-0.314 0.049,-0.339 0.059,-0.361C0.067,-0.383 0.084,-0.4 0.11,-0.414C0.136,-0.427 0.17,-0.434 0.21,-0.434Z" style="fill:white;fill-rule:nonzero;"/>
                </g>
                <g transform="matrix(106.577,0,0,106.544,152.811,1227.64)">
                    <path d="M0.205,-0.625L0.229,-0.625L0.229,-0.432L0.335,-0.432L0.335,-0.389L0.229,-0.389L0.229,-0.113C0.229,-0.083 0.237,-0.061 0.253,-0.046C0.27,-0.031 0.29,-0.027 0.314,-0.034C0.339,-0.041 0.36,-0.058 0.38,-0.086L0.389,-0.08C0.388,-0.079 0.386,-0.075 0.381,-0.067C0.377,-0.06 0.373,-0.054 0.37,-0.048C0.366,-0.043 0.36,-0.036 0.352,-0.028C0.343,-0.021 0.334,-0.014 0.324,-0.009C0.314,-0.004 0.302,0 0.286,0.004C0.27,0.008 0.252,0.01 0.232,0.01C0.197,0.01 0.164,-0.002 0.134,-0.026C0.105,-0.05 0.09,-0.086 0.09,-0.135L0.09,-0.388L0.016,-0.388L0.016,-0.432L0.09,-0.432L0.09,-0.558C0.115,-0.557 0.141,-0.562 0.167,-0.574C0.192,-0.585 0.205,-0.602 0.205,-0.625Z" style="fill:white;fill-rule:nonzero;"/>
                </g>
                <g transform="matrix(106.577,0,0,106.544,195.275,1227.64)">
                    <path d="M0.07,-0.614C0.084,-0.628 0.1,-0.635 0.119,-0.635C0.138,-0.635 0.154,-0.628 0.168,-0.614C0.182,-0.601 0.188,-0.584 0.188,-0.565C0.188,-0.547 0.182,-0.53 0.168,-0.517C0.154,-0.503 0.138,-0.496 0.119,-0.496C0.1,-0.496 0.084,-0.503 0.07,-0.517C0.057,-0.53 0.05,-0.547 0.05,-0.565C0.05,-0.584 0.057,-0.601 0.07,-0.614ZM0.165,-0.454L0.188,-0.454L0.188,0.002L0.05,0.002L0.05,-0.399C0.074,-0.399 0.099,-0.403 0.125,-0.414C0.152,-0.424 0.165,-0.437 0.165,-0.454Z" style="fill:white;fill-rule:nonzero;"/>
                </g>
                <g transform="matrix(106.577,0,0,106.544,220.462,1227.64)">
                    <path d="M0.205,-0.625L0.229,-0.625L0.229,-0.432L0.335,-0.432L0.335,-0.389L0.229,-0.389L0.229,-0.113C0.229,-0.083 0.237,-0.061 0.253,-0.046C0.27,-0.031 0.29,-0.027 0.314,-0.034C0.339,-0.041 0.36,-0.058 0.38,-0.086L0.389,-0.08C0.388,-0.079 0.386,-0.075 0.381,-0.067C0.377,-0.06 0.373,-0.054 0.37,-0.048C0.366,-0.043 0.36,-0.036 0.352,-0.028C0.343,-0.021 0.334,-0.014 0.324,-0.009C0.314,-0.004 0.302,0 0.286,0.004C0.27,0.008 0.252,0.01 0.232,0.01C0.197,0.01 0.164,-0.002 0.134,-0.026C0.105,-0.05 0.09,-0.086 0.09,-0.135L0.09,-0.388L0.016,-0.388L0.016,-0.432L0.09,-0.432L0.09,-0.558C0.115,-0.557 0.141,-0.562 0.167,-0.574C0.192,-0.585 0.205,-0.602 0.205,-0.625Z" style="fill:white;fill-rule:nonzero;"/>
                </g>
                <g transform="matrix(106.577,0,0,106.544,262.927,1227.64)">
                    <path d="M0.165,-0.454L0.188,-0.454L0.188,-0.113C0.188,-0.085 0.197,-0.065 0.215,-0.053C0.233,-0.04 0.253,-0.036 0.275,-0.039C0.298,-0.042 0.316,-0.05 0.33,-0.063L0.33,-0.399C0.354,-0.399 0.379,-0.403 0.406,-0.414C0.432,-0.424 0.445,-0.437 0.445,-0.454L0.469,-0.454L0.469,-0.069C0.469,-0.051 0.472,-0.038 0.48,-0.029C0.487,-0.021 0.502,-0.017 0.524,-0.017L0.524,0.002C0.504,0.009 0.484,0.015 0.464,0.019C0.445,0.022 0.425,0.024 0.403,0.024C0.382,0.024 0.364,0.017 0.351,0.003C0.338,-0.01 0.331,-0.029 0.33,-0.055C0.3,-0.012 0.25,0.01 0.179,0.01C0.146,0.01 0.117,-0.001 0.09,-0.023C0.063,-0.046 0.05,-0.074 0.05,-0.109L0.05,-0.399C0.074,-0.399 0.099,-0.403 0.125,-0.414C0.152,-0.424 0.165,-0.437 0.165,-0.454Z" style="fill:white;fill-rule:nonzero;"/>
                </g>
                <g transform="matrix(106.577,0,0,106.544,320.899,1227.64)">
                    <path d="M0.205,-0.625L0.229,-0.625L0.229,-0.432L0.335,-0.432L0.335,-0.389L0.229,-0.389L0.229,-0.113C0.229,-0.083 0.237,-0.061 0.253,-0.046C0.27,-0.031 0.29,-0.027 0.314,-0.034C0.339,-0.041 0.36,-0.058 0.38,-0.086L0.389,-0.08C0.388,-0.079 0.386,-0.075 0.381,-0.067C0.377,-0.06 0.373,-0.054 0.37,-0.048C0.366,-0.043 0.36,-0.036 0.352,-0.028C0.343,-0.021 0.334,-0.014 0.324,-0.009C0.314,-0.004 0.302,0 0.286,0.004C0.27,0.008 0.252,0.01 0.232,0.01C0.197,0.01 0.164,-0.002 0.134,-0.026C0.105,-0.05 0.09,-0.086 0.09,-0.135L0.09,-0.388L0.016,-0.388L0.016,-0.432L0.09,-0.432L0.09,-0.558C0.115,-0.557 0.141,-0.562 0.167,-0.574C0.192,-0.585 0.205,-0.602 0.205,-0.625Z" style="fill:white;fill-rule:nonzero;"/>
                </g>
                <g transform="matrix(106.577,0,0,106.544,363.363,1227.64)">
                    <path d="M0.245,-0.433C0.305,-0.433 0.356,-0.411 0.398,-0.368C0.44,-0.325 0.461,-0.273 0.461,-0.212C0.461,-0.151 0.44,-0.099 0.398,-0.056C0.356,-0.013 0.305,0.009 0.245,0.009C0.186,0.009 0.135,-0.013 0.093,-0.056C0.051,-0.099 0.03,-0.151 0.03,-0.212C0.03,-0.273 0.051,-0.325 0.093,-0.368C0.135,-0.411 0.186,-0.433 0.245,-0.433ZM0.304,-0.354C0.287,-0.393 0.268,-0.413 0.245,-0.413C0.222,-0.413 0.203,-0.393 0.187,-0.354C0.17,-0.315 0.162,-0.267 0.162,-0.212C0.162,-0.157 0.17,-0.109 0.187,-0.07C0.203,-0.03 0.222,-0.011 0.245,-0.011C0.268,-0.011 0.287,-0.03 0.304,-0.07C0.32,-0.109 0.328,-0.157 0.328,-0.212C0.328,-0.267 0.32,-0.314 0.304,-0.354Z" style="fill:white;fill-rule:nonzero;"/>
                </g>
                <g transform="matrix(106.577,0,0,106.544,447.563,1227.64)">
                    <path d="M0.351,-0.739L0.364,-0.739C0.367,-0.694 0.381,-0.661 0.405,-0.64C0.43,-0.618 0.458,-0.607 0.488,-0.607L0.488,0.018L0.47,0.018C0.468,0.005 0.454,-0.005 0.427,-0.012C0.401,-0.019 0.375,-0.022 0.351,-0.021L0.351,-0.043C0.325,-0.008 0.29,0.01 0.244,0.01C0.178,0.01 0.125,-0.011 0.087,-0.054C0.049,-0.096 0.03,-0.148 0.03,-0.209C0.03,-0.268 0.05,-0.318 0.089,-0.359C0.128,-0.4 0.175,-0.421 0.23,-0.421C0.286,-0.421 0.326,-0.408 0.351,-0.381L0.351,-0.739ZM0.27,-0.388C0.239,-0.388 0.215,-0.372 0.197,-0.34C0.18,-0.309 0.171,-0.265 0.171,-0.209C0.171,-0.163 0.182,-0.122 0.203,-0.087C0.225,-0.052 0.25,-0.034 0.28,-0.034C0.31,-0.034 0.334,-0.056 0.351,-0.1L0.351,-0.329C0.336,-0.368 0.309,-0.388 0.27,-0.388Z" style="fill:white;fill-rule:nonzero;"/>
                </g>
                <g transform="matrix(106.577,0,0,106.544,504.703,1227.64)">
                    <path d="M0.23,-0.42C0.361,-0.42 0.426,-0.351 0.426,-0.212L0.171,-0.212L0.171,-0.209C0.171,-0.163 0.182,-0.123 0.203,-0.089C0.225,-0.056 0.25,-0.039 0.28,-0.039C0.297,-0.039 0.313,-0.042 0.327,-0.047C0.341,-0.052 0.351,-0.057 0.358,-0.063C0.365,-0.069 0.373,-0.076 0.383,-0.085C0.385,-0.087 0.386,-0.088 0.387,-0.089L0.397,-0.077C0.356,-0.024 0.305,0.002 0.244,0.002C0.178,0.002 0.125,-0.018 0.087,-0.058C0.049,-0.098 0.029,-0.148 0.029,-0.209C0.029,-0.267 0.049,-0.317 0.088,-0.358C0.128,-0.399 0.175,-0.42 0.23,-0.42ZM0.27,-0.376C0.244,-0.376 0.223,-0.364 0.206,-0.339C0.188,-0.314 0.177,-0.282 0.173,-0.243L0.338,-0.243C0.341,-0.332 0.318,-0.376 0.27,-0.376Z" style="fill:white;fill-rule:nonzero;"/>
                </g>
                <g transform="matrix(106.577,0,0,106.544,585.052,1227.64)">
                    <path d="M0.07,-0.631L0.513,-0.631L0.514,-0.496C0.513,-0.497 0.509,-0.502 0.503,-0.512C0.496,-0.521 0.492,-0.528 0.488,-0.532C0.485,-0.535 0.479,-0.542 0.472,-0.551C0.464,-0.56 0.456,-0.567 0.449,-0.571C0.441,-0.575 0.432,-0.58 0.422,-0.586C0.411,-0.592 0.4,-0.596 0.387,-0.598C0.375,-0.6 0.361,-0.602 0.347,-0.602L0.211,-0.602L0.211,-0.341C0.221,-0.341 0.26,-0.34 0.268,-0.34L0.279,-0.34C0.303,-0.34 0.323,-0.343 0.339,-0.349C0.356,-0.355 0.369,-0.364 0.379,-0.376C0.389,-0.388 0.396,-0.398 0.4,-0.407C0.405,-0.416 0.41,-0.426 0.414,-0.439C0.415,-0.442 0.415,-0.444 0.416,-0.445L0.415,-0.322L0.416,-0.198C0.404,-0.232 0.391,-0.256 0.378,-0.269C0.355,-0.292 0.322,-0.304 0.279,-0.304C0.279,-0.304 0.275,-0.304 0.268,-0.303C0.26,-0.303 0.252,-0.303 0.241,-0.303L0.211,-0.303L0.211,-0.026L0.37,-0.026C0.384,-0.026 0.398,-0.028 0.411,-0.03C0.423,-0.032 0.435,-0.036 0.445,-0.042C0.456,-0.048 0.465,-0.053 0.472,-0.057C0.479,-0.061 0.486,-0.067 0.495,-0.077C0.503,-0.086 0.508,-0.092 0.511,-0.096C0.514,-0.099 0.519,-0.105 0.526,-0.115L0.537,-0.131L0.536,0.003L0.07,0.003L0.07,-0.631Z" style="fill:white;fill-rule:nonzero;"/>
                </g>
                <g transform="matrix(106.577,0,0,106.544,649.685,1227.64)">
                    <path d="M0.351,-0.739L0.364,-0.739C0.367,-0.694 0.381,-0.661 0.405,-0.64C0.43,-0.618 0.458,-0.607 0.488,-0.607L0.488,0.018L0.47,0.018C0.468,0.005 0.454,-0.005 0.427,-0.012C0.401,-0.019 0.375,-0.022 0.351,-0.021L0.351,-0.043C0.325,-0.008 0.29,0.01 0.244,0.01C0.178,0.01 0.125,-0.011 0.087,-0.054C0.049,-0.096 0.03,-0.148 0.03,-0.209C0.03,-0.268 0.05,-0.318 0.089,-0.359C0.128,-0.4 0.175,-0.421 0.23,-0.421C0.286,-0.421 0.326,-0.408 0.351,-0.381L0.351,-0.739ZM0.27,-0.388C0.239,-0.388 0.215,-0.372 0.197,-0.34C0.18,-0.309 0.171,-0.265 0.171,-0.209C0.171,-0.163 0.182,-0.122 0.203,-0.087C0.225,-0.052 0.25,-0.034 0.28,-0.034C0.31,-0.034 0.334,-0.056 0.351,-0.1L0.351,-0.329C0.336,-0.368 0.309,-0.388 0.27,-0.388Z" style="fill:white;fill-rule:nonzero;"/>
                </g>
                <g transform="matrix(106.577,0,0,106.544,706.824,1227.64)">
                    <path d="M0.165,-0.454L0.188,-0.454L0.188,-0.113C0.188,-0.085 0.197,-0.065 0.215,-0.053C0.233,-0.04 0.253,-0.036 0.275,-0.039C0.298,-0.042 0.316,-0.05 0.33,-0.063L0.33,-0.399C0.354,-0.399 0.379,-0.403 0.406,-0.414C0.432,-0.424 0.445,-0.437 0.445,-0.454L0.469,-0.454L0.469,-0.069C0.469,-0.051 0.472,-0.038 0.48,-0.029C0.487,-0.021 0.502,-0.017 0.524,-0.017L0.524,0.002C0.504,0.009 0.484,0.015 0.464,0.019C0.445,0.022 0.425,0.024 0.403,0.024C0.382,0.024 0.364,0.017 0.351,0.003C0.338,-0.01 0.331,-0.029 0.33,-0.055C0.3,-0.012 0.25,0.01 0.179,0.01C0.146,0.01 0.117,-0.001 0.09,-0.023C0.063,-0.046 0.05,-0.074 0.05,-0.109L0.05,-0.399C0.074,-0.399 0.099,-0.403 0.125,-0.414C0.152,-0.424 0.165,-0.437 0.165,-0.454Z" style="fill:white;fill-rule:nonzero;"/>
                </g>
                <g transform="matrix(106.577,0,0,106.544,764.796,1227.64)">
                    <path d="M0.23,-0.42C0.29,-0.42 0.336,-0.408 0.366,-0.383C0.397,-0.359 0.412,-0.324 0.412,-0.278C0.412,-0.254 0.401,-0.239 0.38,-0.233C0.36,-0.228 0.344,-0.233 0.332,-0.249C0.324,-0.259 0.321,-0.273 0.324,-0.289C0.337,-0.355 0.319,-0.388 0.27,-0.388C0.24,-0.388 0.216,-0.37 0.198,-0.334C0.18,-0.299 0.171,-0.257 0.171,-0.209C0.171,-0.163 0.182,-0.123 0.203,-0.089C0.225,-0.056 0.25,-0.039 0.28,-0.039C0.319,-0.039 0.358,-0.058 0.398,-0.097L0.409,-0.085C0.388,-0.059 0.364,-0.038 0.339,-0.022C0.314,-0.006 0.283,0.002 0.245,0.002C0.179,0.002 0.126,-0.018 0.088,-0.058C0.049,-0.098 0.03,-0.148 0.03,-0.209C0.03,-0.267 0.05,-0.317 0.089,-0.358C0.128,-0.399 0.175,-0.42 0.23,-0.42Z" style="fill:white;fill-rule:nonzero;"/>
                </g>
                <g transform="matrix(106.577,0,0,106.544,810.799,1227.64)">
                    <path d="M0.256,-0.434C0.302,-0.433 0.343,-0.422 0.377,-0.401C0.412,-0.38 0.43,-0.346 0.43,-0.3L0.43,-0.065C0.43,-0.03 0.446,-0.016 0.478,-0.025L0.478,-0.009C0.455,0.009 0.42,0.018 0.371,0.018C0.327,0.018 0.302,0.001 0.294,-0.033C0.271,-0.01 0.239,0.002 0.199,0.002C0.14,0.002 0.095,-0.011 0.065,-0.037C0.035,-0.062 0.024,-0.094 0.031,-0.132C0.036,-0.155 0.048,-0.174 0.068,-0.188C0.088,-0.202 0.11,-0.212 0.133,-0.217C0.157,-0.223 0.185,-0.232 0.216,-0.245C0.247,-0.258 0.273,-0.274 0.293,-0.294C0.293,-0.308 0.293,-0.32 0.292,-0.33C0.292,-0.34 0.291,-0.351 0.288,-0.363C0.285,-0.375 0.281,-0.384 0.274,-0.392C0.268,-0.399 0.259,-0.403 0.249,-0.405C0.229,-0.41 0.21,-0.406 0.193,-0.394C0.176,-0.381 0.17,-0.359 0.175,-0.326C0.177,-0.307 0.168,-0.294 0.146,-0.285C0.123,-0.276 0.103,-0.279 0.086,-0.294C0.07,-0.308 0.066,-0.332 0.074,-0.364C0.08,-0.386 0.101,-0.403 0.138,-0.416C0.175,-0.428 0.214,-0.434 0.256,-0.434ZM0.293,-0.261C0.279,-0.248 0.259,-0.235 0.235,-0.222C0.211,-0.208 0.192,-0.195 0.179,-0.183C0.165,-0.17 0.156,-0.154 0.15,-0.134C0.142,-0.101 0.146,-0.075 0.161,-0.057C0.177,-0.039 0.2,-0.03 0.229,-0.03C0.255,-0.03 0.276,-0.044 0.293,-0.071L0.293,-0.261Z" style="fill:white;fill-rule:nonzero;"/>
                </g>
                <g transform="matrix(106.577,0,0,106.544,862.735,1227.64)">
                    <path d="M0.23,-0.42C0.29,-0.42 0.336,-0.408 0.366,-0.383C0.397,-0.359 0.412,-0.324 0.412,-0.278C0.412,-0.254 0.401,-0.239 0.38,-0.233C0.36,-0.228 0.344,-0.233 0.332,-0.249C0.324,-0.259 0.321,-0.273 0.324,-0.289C0.337,-0.355 0.319,-0.388 0.27,-0.388C0.24,-0.388 0.216,-0.37 0.198,-0.334C0.18,-0.299 0.171,-0.257 0.171,-0.209C0.171,-0.163 0.182,-0.123 0.203,-0.089C0.225,-0.056 0.25,-0.039 0.28,-0.039C0.319,-0.039 0.358,-0.058 0.398,-0.097L0.409,-0.085C0.388,-0.059 0.364,-0.038 0.339,-0.022C0.314,-0.006 0.283,0.002 0.245,0.002C0.179,0.002 0.126,-0.018 0.088,-0.058C0.049,-0.098 0.03,-0.148 0.03,-0.209C0.03,-0.267 0.05,-0.317 0.089,-0.358C0.128,-0.399 0.175,-0.42 0.23,-0.42Z" style="fill:white;fill-rule:nonzero;"/>
                </g>
                <g transform="matrix(106.577,0,0,106.544,908.738,1227.64)">
                    <path d="M0.07,-0.614C0.084,-0.628 0.1,-0.635 0.119,-0.635C0.138,-0.635 0.154,-0.628 0.168,-0.614C0.182,-0.601 0.188,-0.584 0.188,-0.565C0.188,-0.547 0.182,-0.53 0.168,-0.517C0.154,-0.503 0.138,-0.496 0.119,-0.496C0.1,-0.496 0.084,-0.503 0.07,-0.517C0.057,-0.53 0.05,-0.547 0.05,-0.565C0.05,-0.584 0.057,-0.601 0.07,-0.614ZM0.165,-0.454L0.188,-0.454L0.188,0.002L0.05,0.002L0.05,-0.399C0.074,-0.399 0.099,-0.403 0.125,-0.414C0.152,-0.424 0.165,-0.437 0.165,-0.454Z" style="fill:white;fill-rule:nonzero;"/>
                </g>
                <g transform="matrix(106.577,0,0,106.544,933.925,1227.64)">
                    <path d="M0.263,-0.622L0.354,-0.622L0.269,-0.489L0.212,-0.489L0.263,-0.622ZM0.245,-0.433C0.305,-0.433 0.356,-0.411 0.398,-0.368C0.44,-0.325 0.461,-0.273 0.461,-0.212C0.461,-0.151 0.44,-0.099 0.398,-0.056C0.356,-0.013 0.305,0.009 0.245,0.009C0.186,0.009 0.135,-0.013 0.093,-0.056C0.051,-0.099 0.03,-0.151 0.03,-0.212C0.03,-0.273 0.051,-0.325 0.093,-0.368C0.135,-0.411 0.186,-0.433 0.245,-0.433ZM0.304,-0.354C0.287,-0.393 0.268,-0.413 0.245,-0.413C0.222,-0.413 0.203,-0.393 0.187,-0.354C0.17,-0.315 0.162,-0.267 0.162,-0.212C0.162,-0.157 0.17,-0.109 0.187,-0.07C0.203,-0.03 0.222,-0.011 0.245,-0.011C0.268,-0.011 0.287,-0.03 0.304,-0.07C0.32,-0.109 0.328,-0.157 0.328,-0.212C0.328,-0.267 0.32,-0.314 0.304,-0.354Z" style="fill:white;fill-rule:nonzero;"/>
                </g>
                <g transform="matrix(106.577,0,0,106.544,986.173,1227.64)">
                    <path d="M0.165,-0.454L0.188,-0.454L0.188,-0.366C0.22,-0.399 0.266,-0.415 0.326,-0.415C0.359,-0.415 0.388,-0.404 0.415,-0.382C0.441,-0.361 0.454,-0.332 0.454,-0.298L0.454,0.002L0.317,0.002L0.317,-0.295C0.317,-0.32 0.31,-0.339 0.294,-0.352C0.279,-0.364 0.262,-0.37 0.242,-0.369C0.223,-0.368 0.205,-0.362 0.188,-0.353L0.188,0.002L0.05,0.002L0.05,-0.399C0.074,-0.399 0.099,-0.403 0.125,-0.414C0.152,-0.424 0.165,-0.437 0.165,-0.454Z" style="fill:white;fill-rule:nonzero;"/>
                </g>
                <g transform="matrix(106.577,0,0,106.544,1071.83,1227.64)">
                    <path d="M0.271,-0.644C0.321,-0.644 0.365,-0.635 0.403,-0.618C0.44,-0.6 0.465,-0.575 0.477,-0.54C0.484,-0.516 0.482,-0.494 0.469,-0.475C0.457,-0.455 0.441,-0.446 0.422,-0.447C0.406,-0.449 0.392,-0.454 0.381,-0.465C0.371,-0.475 0.367,-0.488 0.369,-0.502C0.376,-0.536 0.376,-0.561 0.371,-0.578C0.365,-0.594 0.353,-0.606 0.334,-0.612C0.32,-0.619 0.304,-0.621 0.284,-0.62C0.264,-0.618 0.245,-0.614 0.227,-0.609C0.209,-0.603 0.194,-0.592 0.181,-0.575C0.168,-0.557 0.161,-0.536 0.161,-0.511C0.161,-0.486 0.176,-0.465 0.206,-0.447C0.236,-0.43 0.278,-0.41 0.331,-0.389C0.384,-0.367 0.425,-0.345 0.456,-0.322C0.485,-0.301 0.505,-0.273 0.516,-0.24C0.527,-0.206 0.526,-0.167 0.513,-0.123C0.498,-0.082 0.47,-0.049 0.428,-0.022C0.385,0.004 0.328,0.017 0.256,0.017C0.207,0.017 0.163,0.005 0.124,-0.019C0.085,-0.043 0.058,-0.074 0.042,-0.111C0.024,-0.159 0.029,-0.193 0.058,-0.213C0.079,-0.227 0.102,-0.229 0.126,-0.218C0.153,-0.206 0.164,-0.184 0.158,-0.152C0.158,-0.152 0.157,-0.151 0.157,-0.149C0.148,-0.11 0.152,-0.077 0.169,-0.052C0.186,-0.026 0.22,-0.014 0.272,-0.014C0.308,-0.014 0.336,-0.026 0.356,-0.051C0.376,-0.076 0.386,-0.106 0.386,-0.144C0.386,-0.165 0.381,-0.184 0.372,-0.199C0.362,-0.215 0.347,-0.229 0.328,-0.241C0.308,-0.253 0.288,-0.263 0.267,-0.272C0.247,-0.282 0.22,-0.293 0.187,-0.308C0.154,-0.323 0.125,-0.337 0.101,-0.351C0.076,-0.365 0.057,-0.384 0.045,-0.409C0.033,-0.434 0.028,-0.459 0.029,-0.483C0.031,-0.508 0.037,-0.531 0.048,-0.551C0.063,-0.581 0.092,-0.604 0.132,-0.62C0.173,-0.636 0.219,-0.644 0.271,-0.644Z" style="fill:white;fill-rule:nonzero;"/>
                </g>
                <g transform="matrix(106.577,0,0,106.544,1131.36,1227.64)">
                    <path d="M0.23,-0.42C0.361,-0.42 0.426,-0.351 0.426,-0.212L0.171,-0.212L0.171,-0.209C0.171,-0.163 0.182,-0.123 0.203,-0.089C0.225,-0.056 0.25,-0.039 0.28,-0.039C0.297,-0.039 0.313,-0.042 0.327,-0.047C0.341,-0.052 0.351,-0.057 0.358,-0.063C0.365,-0.069 0.373,-0.076 0.383,-0.085C0.385,-0.087 0.386,-0.088 0.387,-0.089L0.397,-0.077C0.356,-0.024 0.305,0.002 0.244,0.002C0.178,0.002 0.125,-0.018 0.087,-0.058C0.049,-0.098 0.029,-0.148 0.029,-0.209C0.029,-0.267 0.049,-0.317 0.088,-0.358C0.128,-0.399 0.175,-0.42 0.23,-0.42ZM0.27,-0.376C0.244,-0.376 0.223,-0.364 0.206,-0.339C0.188,-0.314 0.177,-0.282 0.173,-0.243L0.338,-0.243C0.341,-0.332 0.318,-0.376 0.27,-0.376Z" style="fill:white;fill-rule:nonzero;"/>
                </g>
                <g transform="matrix(106.577,0,0,106.544,1179.76,1227.64)">
                    <path d="M0.23,-0.42C0.29,-0.42 0.336,-0.408 0.366,-0.383C0.397,-0.359 0.412,-0.324 0.412,-0.278C0.412,-0.254 0.401,-0.239 0.38,-0.233C0.36,-0.228 0.344,-0.233 0.332,-0.249C0.324,-0.259 0.321,-0.273 0.324,-0.289C0.337,-0.355 0.319,-0.388 0.27,-0.388C0.24,-0.388 0.216,-0.37 0.198,-0.334C0.18,-0.299 0.171,-0.257 0.171,-0.209C0.171,-0.163 0.182,-0.123 0.203,-0.089C0.225,-0.056 0.25,-0.039 0.28,-0.039C0.319,-0.039 0.358,-0.058 0.398,-0.097L0.409,-0.085C0.388,-0.059 0.364,-0.038 0.339,-0.022C0.314,-0.006 0.283,0.002 0.245,0.002C0.179,0.002 0.126,-0.018 0.088,-0.058C0.049,-0.098 0.03,-0.148 0.03,-0.209C0.03,-0.267 0.05,-0.317 0.089,-0.358C0.128,-0.399 0.175,-0.42 0.23,-0.42Z" style="fill:white;fill-rule:nonzero;"/>
                </g>
                <g transform="matrix(106.577,0,0,106.544,1225.76,1227.64)">
                    <path d="M0.165,-0.454L0.188,-0.454L0.188,-0.113C0.188,-0.085 0.197,-0.065 0.215,-0.053C0.233,-0.04 0.253,-0.036 0.275,-0.039C0.298,-0.042 0.316,-0.05 0.33,-0.063L0.33,-0.399C0.354,-0.399 0.379,-0.403 0.406,-0.414C0.432,-0.424 0.445,-0.437 0.445,-0.454L0.469,-0.454L0.469,-0.069C0.469,-0.051 0.472,-0.038 0.48,-0.029C0.487,-0.021 0.502,-0.017 0.524,-0.017L0.524,0.002C0.504,0.009 0.484,0.015 0.464,0.019C0.445,0.022 0.425,0.024 0.403,0.024C0.382,0.024 0.364,0.017 0.351,0.003C0.338,-0.01 0.331,-0.029 0.33,-0.055C0.3,-0.012 0.25,0.01 0.179,0.01C0.146,0.01 0.117,-0.001 0.09,-0.023C0.063,-0.046 0.05,-0.074 0.05,-0.109L0.05,-0.399C0.074,-0.399 0.099,-0.403 0.125,-0.414C0.152,-0.424 0.165,-0.437 0.165,-0.454Z" style="fill:white;fill-rule:nonzero;"/>
                </g>
                <g transform="matrix(106.577,0,0,106.544,1283.74,1227.64)">
                    <path d="M0.165,-0.454L0.188,-0.454L0.188,-0.366C0.22,-0.399 0.266,-0.415 0.326,-0.415C0.359,-0.415 0.388,-0.404 0.415,-0.382C0.441,-0.361 0.454,-0.332 0.454,-0.298L0.454,0.002L0.317,0.002L0.317,-0.295C0.317,-0.32 0.31,-0.339 0.294,-0.352C0.279,-0.364 0.262,-0.37 0.242,-0.369C0.223,-0.368 0.205,-0.362 0.188,-0.353L0.188,0.002L0.05,0.002L0.05,-0.399C0.074,-0.399 0.099,-0.403 0.125,-0.414C0.152,-0.424 0.165,-0.437 0.165,-0.454Z" style="fill:white;fill-rule:nonzero;"/>
                </g>
                <g transform="matrix(106.577,0,0,106.544,1337.44,1227.64)">
                    <path d="M0.351,-0.739L0.364,-0.739C0.367,-0.694 0.381,-0.661 0.405,-0.64C0.43,-0.618 0.458,-0.607 0.488,-0.607L0.488,0.018L0.47,0.018C0.468,0.005 0.454,-0.005 0.427,-0.012C0.401,-0.019 0.375,-0.022 0.351,-0.021L0.351,-0.043C0.325,-0.008 0.29,0.01 0.244,0.01C0.178,0.01 0.125,-0.011 0.087,-0.054C0.049,-0.096 0.03,-0.148 0.03,-0.209C0.03,-0.268 0.05,-0.318 0.089,-0.359C0.128,-0.4 0.175,-0.421 0.23,-0.421C0.286,-0.421 0.326,-0.408 0.351,-0.381L0.351,-0.739ZM0.27,-0.388C0.239,-0.388 0.215,-0.372 0.197,-0.34C0.18,-0.309 0.171,-0.265 0.171,-0.209C0.171,-0.163 0.182,-0.122 0.203,-0.087C0.225,-0.052 0.25,-0.034 0.28,-0.034C0.31,-0.034 0.334,-0.056 0.351,-0.1L0.351,-0.329C0.336,-0.368 0.309,-0.388 0.27,-0.388Z" style="fill:white;fill-rule:nonzero;"/>
                </g>
                <g transform="matrix(106.577,0,0,106.544,1394.58,1227.64)">
                    <path d="M0.256,-0.434C0.302,-0.433 0.343,-0.422 0.377,-0.401C0.412,-0.38 0.43,-0.346 0.43,-0.3L0.43,-0.065C0.43,-0.03 0.446,-0.016 0.478,-0.025L0.478,-0.009C0.455,0.009 0.42,0.018 0.371,0.018C0.327,0.018 0.302,0.001 0.294,-0.033C0.271,-0.01 0.239,0.002 0.199,0.002C0.14,0.002 0.095,-0.011 0.065,-0.037C0.035,-0.062 0.024,-0.094 0.031,-0.132C0.036,-0.155 0.048,-0.174 0.068,-0.188C0.088,-0.202 0.11,-0.212 0.133,-0.217C0.157,-0.223 0.185,-0.232 0.216,-0.245C0.247,-0.258 0.273,-0.274 0.293,-0.294C0.293,-0.308 0.293,-0.32 0.292,-0.33C0.292,-0.34 0.291,-0.351 0.288,-0.363C0.285,-0.375 0.281,-0.384 0.274,-0.392C0.268,-0.399 0.259,-0.403 0.249,-0.405C0.229,-0.41 0.21,-0.406 0.193,-0.394C0.176,-0.381 0.17,-0.359 0.175,-0.326C0.177,-0.307 0.168,-0.294 0.146,-0.285C0.123,-0.276 0.103,-0.279 0.086,-0.294C0.07,-0.308 0.066,-0.332 0.074,-0.364C0.08,-0.386 0.101,-0.403 0.138,-0.416C0.175,-0.428 0.214,-0.434 0.256,-0.434ZM0.293,-0.261C0.279,-0.248 0.259,-0.235 0.235,-0.222C0.211,-0.208 0.192,-0.195 0.179,-0.183C0.165,-0.17 0.156,-0.154 0.15,-0.134C0.142,-0.101 0.146,-0.075 0.161,-0.057C0.177,-0.039 0.2,-0.03 0.229,-0.03C0.255,-0.03 0.276,-0.044 0.293,-0.071L0.293,-0.261Z" style="fill:white;fill-rule:nonzero;"/>
                </g>
                <g transform="matrix(106.577,0,0,106.544,1446.51,1227.64)">
                    <path d="M0.166,-0.454L0.188,-0.454L0.188,-0.369C0.201,-0.384 0.217,-0.397 0.236,-0.407C0.256,-0.417 0.276,-0.422 0.298,-0.421C0.336,-0.419 0.364,-0.407 0.384,-0.385C0.404,-0.363 0.412,-0.336 0.409,-0.302C0.407,-0.278 0.394,-0.263 0.37,-0.256C0.347,-0.248 0.328,-0.252 0.315,-0.267C0.306,-0.278 0.303,-0.293 0.309,-0.313C0.317,-0.344 0.31,-0.366 0.286,-0.379C0.264,-0.391 0.242,-0.389 0.22,-0.373C0.203,-0.361 0.192,-0.343 0.188,-0.319L0.188,0.002L0.05,0.002L0.05,-0.399C0.085,-0.398 0.115,-0.405 0.141,-0.421C0.158,-0.432 0.166,-0.443 0.166,-0.454Z" style="fill:white;fill-rule:nonzero;"/>
                </g>
                <g transform="matrix(106.577,0,0,106.544,1492.31,1227.64)">
                    <path d="M0.07,-0.614C0.084,-0.628 0.1,-0.635 0.119,-0.635C0.138,-0.635 0.154,-0.628 0.168,-0.614C0.182,-0.601 0.188,-0.584 0.188,-0.565C0.188,-0.547 0.182,-0.53 0.168,-0.517C0.154,-0.503 0.138,-0.496 0.119,-0.496C0.1,-0.496 0.084,-0.503 0.07,-0.517C0.057,-0.53 0.05,-0.547 0.05,-0.565C0.05,-0.584 0.057,-0.601 0.07,-0.614ZM0.165,-0.454L0.188,-0.454L0.188,0.002L0.05,0.002L0.05,-0.399C0.074,-0.399 0.099,-0.403 0.125,-0.414C0.152,-0.424 0.165,-0.437 0.165,-0.454Z" style="fill:white;fill-rule:nonzero;"/>
                </g>
                <g transform="matrix(106.577,0,0,106.544,1517.5,1227.64)">
                    <path d="M0.256,-0.434C0.302,-0.433 0.343,-0.422 0.377,-0.401C0.412,-0.38 0.43,-0.346 0.43,-0.3L0.43,-0.065C0.43,-0.03 0.446,-0.016 0.478,-0.025L0.478,-0.009C0.455,0.009 0.42,0.018 0.371,0.018C0.327,0.018 0.302,0.001 0.294,-0.033C0.271,-0.01 0.239,0.002 0.199,0.002C0.14,0.002 0.095,-0.011 0.065,-0.037C0.035,-0.062 0.024,-0.094 0.031,-0.132C0.036,-0.155 0.048,-0.174 0.068,-0.188C0.088,-0.202 0.11,-0.212 0.133,-0.217C0.157,-0.223 0.185,-0.232 0.216,-0.245C0.247,-0.258 0.273,-0.274 0.293,-0.294C0.293,-0.308 0.293,-0.32 0.292,-0.33C0.292,-0.34 0.291,-0.351 0.288,-0.363C0.285,-0.375 0.281,-0.384 0.274,-0.392C0.268,-0.399 0.259,-0.403 0.249,-0.405C0.229,-0.41 0.21,-0.406 0.193,-0.394C0.176,-0.381 0.17,-0.359 0.175,-0.326C0.177,-0.307 0.168,-0.294 0.146,-0.285C0.123,-0.276 0.103,-0.279 0.086,-0.294C0.07,-0.308 0.066,-0.332 0.074,-0.364C0.08,-0.386 0.101,-0.403 0.138,-0.416C0.175,-0.428 0.214,-0.434 0.256,-0.434ZM0.293,-0.261C0.279,-0.248 0.259,-0.235 0.235,-0.222C0.211,-0.208 0.192,-0.195 0.179,-0.183C0.165,-0.17 0.156,-0.154 0.15,-0.134C0.142,-0.101 0.146,-0.075 0.161,-0.057C0.177,-0.039 0.2,-0.03 0.229,-0.03C0.255,-0.03 0.276,-0.044 0.293,-0.071L0.293,-0.261Z" style="fill:white;fill-rule:nonzero;"/>
                </g>
                <g transform="matrix(106.577,0,0,106.544,1601.38,1227.64)">
                    <rect x="0.07" y="-0.705" width="0.047" height="0.783" style="fill:white;fill-rule:nonzero;"/>
                </g>
                <g transform="matrix(106.577,0,0,106.544,1653.11,1227.64)">
                    <path d="M0.377,-0.642C0.487,-0.642 0.558,-0.599 0.59,-0.514C0.608,-0.464 0.603,-0.429 0.573,-0.409C0.552,-0.396 0.53,-0.395 0.507,-0.406C0.479,-0.421 0.469,-0.444 0.476,-0.476C0.495,-0.566 0.467,-0.611 0.391,-0.611C0.359,-0.611 0.331,-0.603 0.308,-0.585C0.284,-0.568 0.266,-0.545 0.254,-0.515C0.242,-0.486 0.232,-0.454 0.227,-0.421C0.221,-0.388 0.218,-0.352 0.218,-0.313C0.218,-0.122 0.276,-0.023 0.393,-0.017C0.429,-0.015 0.465,-0.021 0.5,-0.035C0.529,-0.048 0.554,-0.07 0.576,-0.101C0.58,-0.106 0.585,-0.109 0.591,-0.108C0.597,-0.107 0.602,-0.104 0.604,-0.099C0.606,-0.093 0.606,-0.088 0.603,-0.082C0.589,-0.062 0.572,-0.044 0.553,-0.029C0.525,-0.008 0.491,0.006 0.448,0.013C0.431,0.015 0.41,0.017 0.387,0.017C0.346,0.017 0.306,0.01 0.267,-0.003C0.228,-0.017 0.193,-0.036 0.16,-0.063C0.127,-0.089 0.1,-0.123 0.081,-0.167C0.061,-0.21 0.051,-0.258 0.051,-0.313C0.051,-0.408 0.082,-0.486 0.144,-0.548C0.205,-0.611 0.283,-0.642 0.377,-0.642Z" style="fill:white;fill-rule:nonzero;"/>
                </g>
                <g transform="matrix(106.577,0,0,106.544,1720.35,1227.64)">
                    <path d="M0.274,-0.622L0.365,-0.622L0.279,-0.489L0.223,-0.489L0.274,-0.622ZM0.256,-0.434C0.302,-0.433 0.343,-0.422 0.377,-0.401C0.412,-0.38 0.43,-0.346 0.43,-0.3L0.43,-0.065C0.43,-0.03 0.446,-0.016 0.478,-0.025L0.478,-0.009C0.455,0.009 0.42,0.018 0.371,0.018C0.327,0.018 0.302,0.001 0.294,-0.033C0.271,-0.01 0.239,0.002 0.199,0.002C0.14,0.002 0.095,-0.011 0.065,-0.037C0.035,-0.062 0.024,-0.094 0.031,-0.132C0.036,-0.155 0.048,-0.174 0.068,-0.188C0.088,-0.202 0.11,-0.212 0.133,-0.217C0.157,-0.223 0.185,-0.232 0.216,-0.245C0.247,-0.258 0.273,-0.274 0.293,-0.294C0.293,-0.308 0.293,-0.32 0.292,-0.33C0.292,-0.34 0.291,-0.351 0.288,-0.363C0.285,-0.375 0.281,-0.384 0.274,-0.392C0.268,-0.399 0.259,-0.403 0.249,-0.405C0.229,-0.41 0.21,-0.406 0.193,-0.394C0.176,-0.381 0.17,-0.359 0.175,-0.326C0.177,-0.307 0.168,-0.294 0.146,-0.285C0.123,-0.276 0.103,-0.279 0.086,-0.294C0.07,-0.308 0.066,-0.332 0.074,-0.364C0.08,-0.386 0.101,-0.403 0.138,-0.416C0.175,-0.428 0.214,-0.434 0.256,-0.434ZM0.293,-0.261C0.279,-0.248 0.259,-0.235 0.235,-0.222C0.211,-0.208 0.192,-0.195 0.179,-0.183C0.165,-0.17 0.156,-0.154 0.15,-0.134C0.142,-0.101 0.146,-0.075 0.161,-0.057C0.177,-0.039 0.2,-0.03 0.229,-0.03C0.255,-0.03 0.276,-0.044 0.293,-0.071L0.293,-0.261Z" style="fill:white;fill-rule:nonzero;"/>
                </g>
                <g transform="matrix(106.577,0,0,106.544,1772.28,1227.64)">
                    <path d="M0.351,-0.739L0.364,-0.739C0.367,-0.694 0.381,-0.661 0.405,-0.64C0.43,-0.618 0.458,-0.607 0.488,-0.607L0.488,0.018L0.47,0.018C0.468,0.005 0.454,-0.005 0.427,-0.012C0.401,-0.019 0.375,-0.022 0.351,-0.021L0.351,-0.043C0.325,-0.008 0.29,0.01 0.244,0.01C0.178,0.01 0.125,-0.011 0.087,-0.054C0.049,-0.096 0.03,-0.148 0.03,-0.209C0.03,-0.268 0.05,-0.318 0.089,-0.359C0.128,-0.4 0.175,-0.421 0.23,-0.421C0.286,-0.421 0.326,-0.408 0.351,-0.381L0.351,-0.739ZM0.27,-0.388C0.239,-0.388 0.215,-0.372 0.197,-0.34C0.18,-0.309 0.171,-0.265 0.171,-0.209C0.171,-0.163 0.182,-0.122 0.203,-0.087C0.225,-0.052 0.25,-0.034 0.28,-0.034C0.31,-0.034 0.334,-0.056 0.351,-0.1L0.351,-0.329C0.336,-0.368 0.309,-0.388 0.27,-0.388Z" style="fill:white;fill-rule:nonzero;"/>
                </g>
                <g transform="matrix(106.577,0,0,106.544,1829.42,1227.64)">
                    <path d="M0.07,-0.614C0.084,-0.628 0.1,-0.635 0.119,-0.635C0.138,-0.635 0.154,-0.628 0.168,-0.614C0.182,-0.601 0.188,-0.584 0.188,-0.565C0.188,-0.547 0.182,-0.53 0.168,-0.517C0.154,-0.503 0.138,-0.496 0.119,-0.496C0.1,-0.496 0.084,-0.503 0.07,-0.517C0.057,-0.53 0.05,-0.547 0.05,-0.565C0.05,-0.584 0.057,-0.601 0.07,-0.614ZM0.165,-0.454L0.188,-0.454L0.188,0.002L0.05,0.002L0.05,-0.399C0.074,-0.399 0.099,-0.403 0.125,-0.414C0.152,-0.424 0.165,-0.437 0.165,-0.454Z" style="fill:white;fill-rule:nonzero;"/>
                </g>
                <g transform="matrix(106.577,0,0,106.544,1854.61,1227.64)">
                    <path d="M0.479,-0.426L0.479,-0.392L0.231,-0.03L0.262,-0.03C0.354,-0.03 0.422,-0.067 0.464,-0.141L0.456,0.004L0.208,0.004L0.208,0.005L0.043,0.005L0.313,-0.392L0.259,-0.392C0.167,-0.392 0.1,-0.354 0.057,-0.28L0.064,-0.426L0.479,-0.426Z" style="fill:white;fill-rule:nonzero;"/>
                </g>
            </g>
        </g>
        <g transform="matrix(1,0,0,1,36.7431,59.0428)">
            <g transform="matrix(0.44939,0,0,0.44939,200.142,1736.96)">
                <path d="M387.141,260.141C386.369,261.63 384.814,262.647 383.023,262.647L378.433,258.665L378.572,256.714L378.897,255.896C378.915,255.861 379.016,255.671 379.185,255.353C380.644,252.617 387.985,238.907 388.263,238.331C390.241,234.224 392.333,230.16 394.452,226.122C400.742,214.13 406.307,201.766 413.531,190.274C437.304,152.459 472.158,115.957 520.632,115.957C523.19,115.957 525.267,118.034 525.267,120.592C525.267,123.151 523.19,125.228 520.632,125.228C475.474,125.228 443.527,159.981 421.381,195.209C414.286,206.495 408.84,218.651 402.662,230.429C400.593,234.374 398.549,238.343 396.616,242.356C396.333,242.943 388.854,256.925 387.367,259.715C387.245,259.944 387.141,260.141 387.141,260.141Z" style="fill:white;"/>
                <path d="M515.549,123.591C515.455,123.223 515.405,122.838 515.405,122.44L515.762,120.426L516.619,119.065L517.711,118.178L519.048,117.652L520.632,117.577L522.207,118.07L523.467,119.036L524.217,120.128L524.678,121.67C524.799,122.521 525.113,126.851 525.195,127.586C525.741,132.496 525.399,138.11 523.542,142.747C521.89,146.873 516.471,151.973 511.852,157.069C510.073,159.031 508.439,160.99 507.509,162.939C507.061,163.877 506.692,164.771 507.108,165.639C509.316,170.237 512.611,175.774 513.904,181.315C514.979,185.923 514.784,190.536 512.367,194.857C511.081,197.156 507.72,200.231 504.526,203.251C503.292,204.418 502.1,205.584 501.207,206.707C501.106,206.834 500.998,206.988 500.894,207.143C502.025,208.336 504.216,210.677 504.789,211.498C509.476,218.215 511.008,226.674 507.32,234.256C505.023,238.981 500.663,241.992 496.295,244.85C493.515,246.67 490.607,248.274 489.55,251.343C488.562,254.213 488.885,257.23 489.172,260.274C489.567,264.451 489.998,268.673 489.124,272.796C486.538,285.001 479.867,293.12 471.378,296.644C462.915,300.157 452.383,299.203 441.693,292.411C439.534,291.038 438.895,288.171 440.267,286.011C441.639,283.852 444.507,283.213 446.666,284.585C454.311,289.443 461.771,290.593 467.823,288.081C473.852,285.578 478.217,279.542 480.054,270.874C480.732,267.671 480.248,264.391 479.942,261.147C479.528,256.77 479.363,252.45 480.783,248.325C482.223,244.143 485.282,241.18 488.933,238.627C490.999,237.181 493.257,235.861 495.276,234.317C496.771,233.174 498.147,231.919 498.982,230.202C501.159,225.725 499.952,220.769 497.185,216.804C496.47,215.779 494.17,213.875 492.914,212.175C492.288,211.327 491.829,210.487 491.553,209.73L491.194,208.255L491.167,207.018C491.337,204.958 492.585,202.454 494.738,199.994C496.724,197.726 499.507,195.312 501.778,193.116C502.848,192.082 503.81,191.162 504.275,190.331C505.884,187.455 505.297,184.323 504.249,181.276C502.823,177.132 500.411,173.112 498.75,169.651C496.408,164.772 498.185,159.227 502.389,153.886C505.099,150.443 508.747,146.991 511.639,143.789C513.097,142.175 514.375,140.699 514.934,139.301C516.242,136.035 516.364,132.068 515.98,128.609C515.919,128.064 515.66,124.942 515.549,123.591ZM523.857,125.071C524.302,124.503 524.676,123.665 524.676,122.44C524.676,123.417 524.374,124.324 523.857,125.071Z" style="fill:white;"/>
                <path d="M441.239,291.648C440.685,290.884 440.358,289.944 440.358,288.929L440.733,287.095L441.759,285.596L443.224,284.629L444.904,284.276L445.99,284.381L447.058,284.755L448.049,285.413L448.734,286.145C449.082,286.603 450.911,290.284 451.269,291.119C452.776,294.632 453.199,298.193 453.672,301.943C455.083,313.144 453.736,327.446 444.456,335.258C435.617,342.699 425.116,344.113 414.695,339.197C413.098,338.444 410.402,336.735 407.847,335.142C407.413,339.679 406.29,344.884 404.399,348.862C402.571,352.709 399.594,355.785 396.681,358.825C390.105,365.687 384.188,368.81 378.598,369.352C370.399,370.147 362.293,365.277 352.818,355.809C351.008,354 351.007,351.062 352.815,349.253C354.624,347.443 357.562,347.442 359.371,349.25C363.148,353.024 366.567,356.021 369.883,357.967C372.546,359.53 375.079,360.378 377.704,360.123C381.579,359.748 385.428,357.166 389.987,352.41C392.218,350.082 394.625,347.828 396.025,344.883C397.652,341.459 398.466,336.846 398.713,333.085C398.786,331.975 398.546,328.666 399.203,326.99L400.452,325.001L402.164,323.779L403.576,323.376L404.957,323.381L407.49,324.211C410.238,325.529 416.015,329.568 418.651,330.812C425.597,334.088 432.593,333.124 438.485,328.165C445.403,322.341 445.524,311.452 444.472,303.102C444.11,300.225 443.904,297.468 442.748,294.773C442.561,294.338 441.561,292.302 441.239,291.648ZM446.517,293.309C447.513,292.996 448.396,292.365 449.02,291.228C448.469,292.191 447.581,292.938 446.517,293.309ZM449.445,290.231C449.55,289.879 449.63,289.449 449.63,288.929C449.63,289.381 449.565,289.818 449.445,290.231Z" style="fill:white;"/>
                <path d="M298.38,330.079C297.603,330.667 296.635,331.016 295.586,331.016L293.881,330.714L292.878,330.196L292.037,329.462L291.232,328.215L290.852,326.663L290.913,325.528L291.312,324.305L292.133,323.123L293.111,322.328C294.339,321.559 306.238,317.587 307.587,317.16C310.324,316.292 313.011,315.372 315.64,314.198C323.605,310.64 330.192,305.218 337.441,300.482C350.153,292.175 367.156,271.965 376.562,259.835C380.721,254.47 388.562,236.807 391.835,231.747C393.224,229.599 396.097,228.983 398.245,230.372C400.394,231.762 401.01,234.634 399.62,236.783C396.267,241.967 388.151,260.019 383.889,265.516C373.973,278.305 355.915,299.486 342.513,308.243C334.851,313.25 327.84,318.903 319.421,322.664C316.471,323.982 313.459,325.025 310.387,325.999C309.352,326.327 301.361,328.906 298.38,330.079ZM298.445,322.731C297.861,322.222 296.967,321.744 295.586,321.744C296.664,321.744 297.657,322.113 298.445,322.731Z" style="fill:white;"/>
                <path d="M287.823,276.019L290.729,276.787C292.595,276.675 294.448,276.744 296.32,276.775C301.935,276.865 307.35,276.413 312.892,275.561C323.891,273.87 335.28,269.959 345.214,264.409C336.954,263.454 328.888,259.107 324.001,252.324L322.798,251.388L322.023,250.279L321.651,249.308L321.492,248.175L321.625,246.95L322.09,245.754L322.916,244.666L323.962,243.884L325.624,243.327L327.108,243.341L328.302,243.689L328.528,243.814C331.441,243.748 335.983,243.477 337.821,242.604C343.314,239.998 349.823,236.499 354.636,231.845C353.71,231.477 352.818,231.014 351.98,230.473C345.963,226.593 342.933,220.168 340.886,213.605C340.656,212.868 339.55,209.498 339.503,207.765L339.584,206.503L339.923,205.297L341.043,203.614C342.86,201.812 345.797,201.824 347.6,203.64C348.726,204.775 349.144,206.348 348.856,207.808C349.07,208.555 349.63,210.501 349.737,210.843C351.145,215.359 352.865,220.011 357.005,222.681C357.81,223.2 358.739,223.613 359.694,223.545C360.078,223.366 361.334,222.785 361.82,222.606L363.146,222.269L364.429,222.265L365.7,222.609L366.733,223.213L367.548,224.013L368.15,224.995L368.577,227.026L368.413,228.226L368.033,229.228C363.097,239.177 351.374,246.437 341.795,250.981C340.771,251.467 339.141,251.867 337.299,252.184C341.258,254.577 346.03,255.695 350.538,255.243C353.417,254.954 356.339,254.076 359.073,253.165C360.327,252.747 361.634,252.322 362.82,251.729L363.941,251.298L365.957,251.238L367.007,251.572L367.944,252.141L368.968,253.258L369.607,254.766L369.681,256.406L369.232,257.865C368.253,259.823 366.323,261.817 363.96,263.571C361.331,265.522 358.158,267.245 356.25,268.521C344.003,276.71 328.843,282.49 314.301,284.725C308.238,285.658 302.313,286.144 296.171,286.045C294.379,286.016 292.608,285.921 290.818,286.077L289.514,286.016C288.785,285.894 285.993,285.195 284.693,284.778L283.423,284.271L282.356,283.512L281.565,282.533L281.002,281.134L280.891,280.04L281.073,278.832L281.694,277.51L282.852,276.329L283.989,275.739L285.622,275.464C286.418,275.464 287.168,275.665 287.823,276.019ZM288.653,283.606C287.84,284.31 286.78,284.735 285.622,284.735C287.161,284.735 288.092,284.154 288.653,283.606Z" style="fill:white;"/>
                <path d="M365.354,190.765C364.623,190.647 363.907,190.454 363.216,190.161C360.828,189.147 358.729,187.205 357.203,184.748C355.141,181.425 354.175,177.2 354.584,173.849C354.955,170.811 356.488,168.286 358.699,166.201C361.062,163.973 364.3,162.297 366.792,160.821C372.049,157.708 378.191,152.683 381.095,147.265C383.142,143.445 382.96,138.619 381.509,134.603C380.671,132.283 379.22,129.506 378.612,126.784C377.994,124.014 378.121,121.283 379.4,118.783C380.945,115.762 383.993,113.51 387.765,111.943C391.711,110.304 396.53,109.415 399.575,108.05C410.659,103.083 418.375,91.623 417.157,79.343C416.904,76.797 418.766,74.525 421.312,74.272C423.859,74.019 426.131,75.881 426.383,78.427C427.994,94.66 418.018,109.946 403.367,116.511C400.699,117.707 396.747,118.589 393.1,119.839C390.832,120.616 388.536,121.283 387.655,123.005C387.236,123.825 387.614,124.734 387.902,125.643C388.549,127.69 389.599,129.707 390.229,131.452C392.545,137.861 392.534,145.55 389.267,151.645C385.629,158.432 378.101,164.899 371.517,168.799C369.808,169.811 367.64,170.883 365.844,172.28C364.889,173.023 363.932,173.79 363.788,174.973C363.635,176.219 364.001,177.718 364.637,179.046C365.164,180.145 365.845,181.204 366.839,181.626C367.486,181.901 368.203,181.743 368.909,181.661C369.949,181.54 370.987,181.36 371.977,181.266C372.51,181.216 373.727,181.187 373.727,181.187L373.775,185.205L374.093,185.396L378.071,187.777L377.812,188.209C376.575,190.268 373.508,195.306 372.161,197.297C369.329,201.482 363.365,207.782 357.013,210.805C351.735,213.319 346.226,213.661 341.471,210.482C339.343,209.06 338.771,206.179 340.193,204.051C341.614,201.924 344.496,201.352 346.623,202.773C348.585,204.085 350.85,203.471 353.028,202.434C357.855,200.136 362.329,195.281 364.482,192.1C364.723,191.744 365.021,191.287 365.354,190.765Z" style="fill:white;"/>
                <path d="M312.515,92.402C311.771,92.91 310.872,93.207 309.904,93.207C307.346,93.207 305.268,91.13 305.268,88.571L305.621,86.779L306.612,85.258L307.98,84.237C308.373,84.029 308.994,83.77 309.835,83.525C317.116,81.407 353.56,76.944 354.37,76.916C361.545,76.671 368.934,77.119 376.039,78.156C394.149,80.798 403.821,78.047 420.595,73.854C423.077,73.233 425.596,74.745 426.217,77.227C426.837,79.709 425.326,82.228 422.844,82.849C404.725,87.379 394.263,90.184 374.7,87.33C368.138,86.373 361.314,85.956 354.687,86.183C353.921,86.209 319.627,90.382 312.515,92.402Z" style="fill:white;"/>
                <path d="M365.589,86.367C364.315,86.318 355.442,86 350.252,86.453C347.005,86.736 338.084,87.811 334.852,88.16C325.922,89.126 316.456,90.667 307.991,93.725C280.087,103.805 257.694,116.067 241.308,141.892C234.433,152.725 228.119,163.751 224.339,176.105C220.782,187.731 219.379,199.348 218.951,211.435C218.279,230.394 218.99,254.513 225.259,275.76C231.242,296.038 242.285,313.749 262.707,320.894C268.924,323.069 279.088,324.807 287.453,322.975C289.952,322.428 292.426,324.013 292.973,326.512C293.52,329.012 291.935,331.485 289.436,332.032C279.369,334.237 267.127,332.263 259.645,329.646C240.847,323.069 228.714,308.927 221.123,291.552C210.242,266.641 208.839,234.985 209.685,211.107C210.142,198.201 211.675,185.804 215.473,173.392C219.499,160.236 226.158,148.462 233.479,136.924C251.059,109.219 274.905,95.819 304.841,85.005C313.987,81.701 324.207,79.985 333.856,78.942C337.128,78.589 346.16,77.502 349.447,77.216C355.739,76.668 365.167,76.965 366.848,77.167L368.112,77.455L369.654,78.386L370.643,79.661L371.137,81.208L370.968,83.206L370.545,84.166L369.818,85.108C368.671,86.256 367.069,86.675 365.589,86.367ZM362.834,84.616C362.462,84.121 362.201,83.569 362.053,82.994C362.185,83.524 362.421,84.079 362.834,84.616ZM361.915,82.138C361.83,80.851 362.279,79.535 363.262,78.552C362.115,79.699 361.821,80.953 361.915,82.138Z" style="fill:white;"/>
                <path d="M281.44,333.178C280.236,333.679 278.828,333.671 277.573,333.039C275.288,331.887 274.368,329.097 275.519,326.813L276.814,325.229L278.794,324.265C280.756,323.722 289.795,322.805 293.021,321.999C304.73,319.072 314.827,315.508 325.068,309.027C327.23,307.659 330.096,308.304 331.465,310.466C332.833,312.628 332.188,315.494 330.026,316.862C318.913,323.895 307.977,327.817 295.27,330.994C292.332,331.728 282.837,332.994 281.44,333.178Z" style="fill:white;"/>
                <path d="M354.56,354.516C353.539,355.247 349.958,357.804 348.834,358.517C343.711,361.771 338.304,364.596 332.742,367.02C317.145,373.816 298.299,373.294 281.714,370.929C257.674,367.502 232.494,359.965 215.215,341.606C205.909,331.718 201.289,320.599 195.956,308.43C192.46,300.453 182.664,277.838 181.213,269.201C180.789,266.678 182.494,264.285 185.017,263.862C187.541,263.438 189.933,265.142 190.357,267.665C191.729,275.834 201.142,297.164 204.448,304.709C209.343,315.878 213.425,326.175 221.967,335.251C237.791,352.064 261.007,358.611 283.022,361.75C297.972,363.881 314.98,364.646 329.038,358.52C334.162,356.287 339.144,353.688 343.863,350.691C345.575,349.603 350.407,346.078 351.339,345.75L352.476,345.492L353.462,345.492L354.757,345.817L355.805,346.415L357.075,347.884L357.483,348.881L357.656,350.143C357.656,352.161 356.362,353.881 354.56,354.516ZM350.665,354.136C349.3,353.329 348.384,351.842 348.384,350.143C348.384,352.124 349.239,353.389 350.665,354.136Z" style="fill:white;"/>
                <path d="M197.312,287.205C198.449,289.497 197.511,292.281 195.219,293.418C192.927,294.555 190.143,293.617 189.006,291.325C179.877,272.924 176.105,244.758 170.002,225.312C167.285,216.657 164.233,206.629 157.55,200.15C152.258,195.02 145.222,192.692 138.386,190.412C133.259,188.701 128.002,187.443 122.583,187.443C120.025,187.443 117.947,185.365 117.947,182.807C117.947,180.248 120.025,178.171 122.583,178.171C129.003,178.171 135.245,179.59 141.32,181.616C149.463,184.332 157.701,187.383 164.003,193.493C171.768,201.02 175.692,212.48 178.848,222.535C184.824,241.573 188.374,269.189 197.312,287.205Z" style="fill:white;"/>
                <path d="M123.357,189.6C120.799,189.6 118.721,187.523 118.721,184.964C118.721,182.406 120.799,180.328 123.357,180.328C127.559,180.328 131.518,183.546 134.089,189.311C138.267,198.678 139.583,215.019 139.122,219.876C135.497,258.038 118.348,292.311 116.315,330.842C115.334,349.442 116.854,363.7 121.497,375.947C128.489,394.389 142.518,408.175 164.891,425.514C174.238,432.759 215.632,449.714 222.859,451.372C225.353,451.944 226.913,454.433 226.341,456.927C225.768,459.421 223.279,460.981 220.785,460.409C213.104,458.646 169.146,440.542 159.211,432.843C135.136,414.184 120.351,399.079 112.828,379.234C107.794,365.957 105.993,350.517 107.056,330.354C109.096,291.691 126.255,257.292 129.892,218.999C130.23,215.439 129.4,204.669 126.92,196.617C126.193,194.256 125.347,192.14 124.268,190.635C124.056,190.34 123.839,190.074 123.605,189.854C123.508,189.763 123.477,189.6 123.357,189.6Z" style="fill:white;"/>
                <path d="M210.515,397.91C210.21,397.293 210.039,396.598 210.039,395.864L210.189,394.685L210.704,393.458L211.404,392.563L212.173,391.943L213.824,391.286L215.485,391.277L216.844,391.742L217.847,392.454L218.918,393.938C219.212,394.568 220.7,399.473 220.851,400.366C221.563,404.571 222.115,408.832 222.52,413.076C223.658,425.028 223.961,436.922 223.961,448.922C223.961,485.676 223.217,521.834 215.693,557.895C215.17,560.4 212.713,562.009 210.208,561.486C207.703,560.964 206.094,558.506 206.617,556.001C214.01,520.568 214.689,485.036 214.689,448.922C214.689,437.216 214.4,425.614 213.289,413.955C212.906,409.934 212.384,405.897 211.709,401.913C211.629,401.438 210.745,398.636 210.515,397.91ZM215.469,400.432C216.798,400.267 218.188,399.605 218.952,397.655C218.35,399.091 217.045,400.16 215.469,400.432ZM219.236,396.699C219.28,396.466 219.311,396.188 219.311,395.864C219.311,396.149 219.285,396.428 219.236,396.699Z" style="fill:white;"/>
                <path d="M333.506,458.626C333.397,461.278 333.127,463.923 332.7,466.49C330.954,476.966 326.487,484.392 320.418,489.201C311.44,496.317 298.671,497.789 284.925,493.986C270.458,489.984 259.666,479.689 250.907,467.273C242.69,455.625 236.26,442.128 229.907,430.937C225.771,423.654 222.371,415.968 218.484,408.55C217.225,406.147 215.881,403.794 214.598,401.405C214.528,401.274 213.811,400.102 213.394,399.421C212.377,398.571 211.73,397.292 211.73,395.864L212.139,393.912L213.121,392.486L214.091,391.747L215.248,391.277L217.262,391.206L218.722,391.732L219.88,392.624C220.597,393.355 222.579,396.668 222.767,397.019C224.064,399.435 225.423,401.816 226.696,404.246C230.535,411.572 233.885,419.166 237.97,426.359C244.186,437.308 250.444,450.532 258.483,461.928C265.981,472.555 275.014,481.625 287.397,485.05C297.928,487.963 307.78,487.387 314.659,481.935C319.162,478.366 322.258,472.739 323.554,464.966C324.305,460.459 324.487,455.671 324.069,451.122C324.024,450.637 322.91,445.394 322.791,444.282L322.796,442.995L323.257,441.498L323.938,440.496L324.833,439.719L326.464,439.039L328.262,439.025L329.414,439.404L330.534,440.163L331.258,440.98C332.327,442.357 337.556,449.364 338.006,449.864C340.258,452.371 343.47,455.742 347.088,458.092C349.756,459.826 352.626,461.198 355.422,460.107C357.163,459.428 358.484,457.885 359.592,455.974C361.038,453.48 362.043,450.36 362.672,447.009C363.864,440.668 363.695,433.506 362.145,427.827C361.296,424.716 360.122,422.053 358.287,420.585C356.289,418.987 355.965,416.067 357.563,414.069C359.162,412.071 362.081,411.747 364.079,413.345C367.194,415.837 369.648,420.103 371.09,425.385C372.976,432.295 373.234,441.006 371.785,448.721C369.98,458.325 365.302,466.206 358.791,468.745C354.223,470.527 349.432,469.79 344.917,467.527C340.645,465.386 336.626,461.825 333.506,458.626ZM220.257,398.384C220.665,397.804 221.002,397.001 221.002,395.864C221.002,396.793 220.728,397.659 220.257,398.384Z" style="fill:white;"/>
                <path d="M405.73,406.343C405.612,406.038 404.777,403.863 404.6,402.98L404.468,401.511L404.723,400.004L405.466,398.542L406.822,397.269L408.074,396.69L409.681,396.453L410.735,396.559L411.897,396.927L413.089,397.6C413.468,397.863 413.885,398.202 414.323,398.616C416.716,400.876 420.464,406.623 421.538,407.72C425.243,411.507 429.047,414.862 432.858,416.905C435.763,418.463 438.615,419.278 441.367,418.277C443.964,417.333 446.294,414.946 448.592,411.01C450.404,407.905 451.403,404.29 452.357,400.848C453.811,395.6 454.493,390.28 454.696,384.852C454.791,382.295 456.945,380.297 459.502,380.392C462.058,380.488 464.057,382.641 463.961,385.198C463.732,391.35 462.94,397.376 461.292,403.324C460.129,407.523 458.81,411.896 456.599,415.684C451.529,424.371 445.624,427.659 439.754,427.959C431.869,428.363 423.228,422.603 415.303,414.604C415.298,414.917 415.29,415.23 415.281,415.543C415.116,421.281 414.884,431.281 412.133,439.019C409.848,445.445 405.841,450.343 399.715,451.836C393.168,453.431 387.395,451.714 382.388,448.228C375.991,443.775 370.929,436.197 367.239,430.342C365.393,427.413 363.457,424.592 361.268,421.902C360.908,421.46 360.124,420.389 359.533,419.573C357.878,418.865 356.716,417.221 356.716,415.308L356.832,414.149L357.233,412.969L358.507,411.351L359.455,410.743L360.516,410.376L361.704,410.267L363.031,410.499L364.266,411.088L365.499,412.137C366.367,413.06 367.727,415.149 368.461,416.051C370.886,419.032 373.038,422.153 375.083,425.399C377.72,429.583 381.08,434.87 385.315,438.715C388.718,441.806 392.716,443.998 397.52,442.828C400.635,442.068 402.235,439.181 403.397,435.913C405.813,429.117 405.868,420.315 406.013,415.276C406.099,412.296 406.025,409.312 405.73,406.343ZM365.971,415.714C365.982,415.585 365.988,415.449 365.988,415.308C365.988,415.445 365.982,415.58 365.971,415.714Z" style="fill:white;"/>
                <path d="M457.649,384.063C456.417,383.23 455.606,381.819 455.606,380.221L455.945,378.464L457.093,376.787L458.74,375.793L460.288,375.533L461.632,375.732L462.932,376.347C463.433,376.68 464.872,378.263 465.131,378.544C466.179,379.674 467.282,380.759 468.397,381.822C471.427,384.709 475.099,387.015 478.768,388.994C482.825,391.182 489.949,393.605 496.066,393.58C498.762,393.568 501.288,393.212 502.799,391.503C503.712,390.47 504.104,388.966 504.104,386.97C504.104,379.742 500.341,374.078 495.086,369.573C486.194,361.949 473.129,357.534 463.585,355.149C429.675,346.676 394.025,366.578 365.787,385.05C355.176,391.991 339.849,408.398 329.4,415.499C327.284,416.937 324.398,416.387 322.96,414.271C321.522,412.154 322.072,409.269 324.189,407.831C334.673,400.705 350.064,384.256 360.712,377.291C390.984,357.488 429.479,337.071 465.832,346.154C476.55,348.831 491.135,353.973 501.121,362.534C508.452,368.818 513.376,376.887 513.376,386.97C513.376,391.741 511.927,395.176 509.746,397.644C507.547,400.131 504.51,401.689 500.952,402.394C492.461,404.077 480.575,400.504 474.367,397.155C469.98,394.789 465.623,391.986 462.001,388.534C460.747,387.339 459.508,386.116 458.33,384.845C458.257,384.766 457.909,384.364 457.649,384.063ZM464.036,382.884C464.5,382.263 464.878,381.416 464.878,380.221C464.878,381.212 464.567,382.131 464.036,382.884Z" style="fill:white;"/>
                <path d="M344.833,389.666C345.151,389.369 345.516,389.111 345.925,388.907L347.666,388.429L349.054,388.539L348.316,394.943C348.661,395.446 348.984,395.906 349.258,396.277L352.604,392.524L352.485,394.223L351.944,395.487L351.187,396.419C351.145,396.459 350.888,396.693 350.453,397.084C346.647,400.509 327.299,417.827 325.223,419.606C316.976,426.672 309.858,434.572 300.335,440.04C272.432,456.064 248.096,466.028 216.61,458.401C214.123,457.799 212.594,455.291 213.196,452.804C213.798,450.317 216.306,448.787 218.793,449.39C247.763,456.408 270.044,446.743 295.718,432C304.73,426.825 311.386,419.252 319.19,412.565C321.253,410.798 340.471,393.594 344.252,390.192C344.567,389.908 344.833,389.666 344.833,389.666Z" style="fill:white;"/>
                <path d="M145.092,232.624C144.996,232.252 144.945,231.862 144.945,231.46L145.34,229.17L145.884,228.148L146.571,227.354L147.745,226.55L149.203,226.113L150.8,226.171L152.326,226.763L153.827,228.072C154.221,228.55 154.719,229.317 155.21,230.263C156.581,232.908 157.904,237.142 157.904,238.291L157.771,239.918L157.269,241.446L156.264,242.826L154.989,243.717L153.636,244.139L152.325,244.165L150.592,243.63L149.31,242.7C148.654,242.068 147.706,240.658 146.93,239.008C145.945,236.915 145.18,234.461 145.091,233.663C145.052,233.31 145.054,232.963 145.092,232.624Z" style="fill:white;"/>
            </g>
        </g>
        <g transform="matrix(1,0,0,1,36.7431,59.0428)">
            <g transform="matrix(0.586794,0,0,0.586612,345.599,1340.49)">
                <g transform="matrix(333.333,0,0,333.333,163.643,981.02)">
                    <path d="M0.07,-0.631L0.21,-0.63L0.335,-0.63C0.393,-0.63 0.438,-0.613 0.472,-0.579C0.505,-0.544 0.521,-0.501 0.521,-0.448C0.521,-0.404 0.511,-0.365 0.489,-0.332C0.468,-0.298 0.439,-0.275 0.402,-0.262C0.428,-0.255 0.449,-0.24 0.463,-0.217C0.477,-0.194 0.487,-0.17 0.491,-0.146C0.496,-0.121 0.504,-0.094 0.515,-0.065C0.526,-0.036 0.541,-0.013 0.56,0.003C0.498,0.014 0.45,0.009 0.415,-0.011C0.401,-0.019 0.39,-0.036 0.382,-0.063C0.374,-0.089 0.368,-0.115 0.365,-0.141C0.362,-0.167 0.353,-0.191 0.338,-0.213C0.323,-0.236 0.301,-0.248 0.273,-0.251L0.21,-0.251L0.21,0.003L0.07,0.003L0.07,-0.631ZM0.313,-0.604L0.21,-0.604L0.21,-0.278C0.215,-0.278 0.228,-0.278 0.25,-0.278C0.273,-0.278 0.293,-0.277 0.31,-0.277C0.343,-0.277 0.369,-0.294 0.386,-0.328C0.403,-0.362 0.412,-0.402 0.414,-0.447C0.415,-0.486 0.407,-0.522 0.389,-0.555C0.371,-0.587 0.346,-0.604 0.313,-0.604Z" style="fill:white;fill-rule:nonzero;"/>
                </g>
                <g transform="matrix(333.333,0,0,333.333,350.167,981.02)">
                    <path d="M0.256,-0.434C0.302,-0.433 0.343,-0.422 0.377,-0.401C0.412,-0.38 0.43,-0.346 0.43,-0.3L0.43,-0.065C0.43,-0.03 0.446,-0.016 0.478,-0.025L0.478,-0.009C0.455,0.009 0.42,0.018 0.371,0.018C0.327,0.018 0.302,0.001 0.294,-0.033C0.271,-0.01 0.239,0.002 0.199,0.002C0.14,0.002 0.095,-0.011 0.065,-0.037C0.035,-0.062 0.024,-0.094 0.031,-0.132C0.036,-0.155 0.048,-0.174 0.068,-0.188C0.088,-0.202 0.11,-0.212 0.133,-0.217C0.157,-0.223 0.185,-0.232 0.216,-0.245C0.247,-0.258 0.273,-0.274 0.293,-0.294C0.293,-0.308 0.293,-0.32 0.292,-0.33C0.292,-0.34 0.291,-0.351 0.288,-0.363C0.285,-0.375 0.281,-0.384 0.274,-0.392C0.268,-0.399 0.259,-0.403 0.249,-0.405C0.229,-0.41 0.21,-0.406 0.193,-0.394C0.176,-0.381 0.17,-0.359 0.175,-0.326C0.177,-0.307 0.168,-0.294 0.146,-0.285C0.123,-0.276 0.103,-0.279 0.086,-0.294C0.07,-0.308 0.066,-0.332 0.074,-0.364C0.08,-0.386 0.101,-0.403 0.138,-0.416C0.175,-0.428 0.214,-0.434 0.256,-0.434ZM0.293,-0.261C0.279,-0.248 0.259,-0.235 0.235,-0.222C0.211,-0.208 0.192,-0.195 0.179,-0.183C0.165,-0.17 0.156,-0.154 0.15,-0.134C0.142,-0.101 0.146,-0.075 0.161,-0.057C0.177,-0.039 0.2,-0.03 0.229,-0.03C0.255,-0.03 0.276,-0.044 0.293,-0.071L0.293,-0.261Z" style="fill:white;fill-rule:nonzero;"/>
                </g>
                <g transform="matrix(333.333,0,0,333.333,512.602,981.02)">
                    <path d="M0.301,-0.712C0.339,-0.712 0.374,-0.7 0.404,-0.675C0.421,-0.662 0.434,-0.646 0.444,-0.627C0.453,-0.608 0.457,-0.589 0.456,-0.568C0.453,-0.534 0.439,-0.512 0.412,-0.503C0.389,-0.496 0.369,-0.5 0.354,-0.517C0.339,-0.532 0.335,-0.553 0.342,-0.579C0.35,-0.606 0.35,-0.631 0.342,-0.653C0.334,-0.676 0.317,-0.687 0.291,-0.686C0.253,-0.684 0.234,-0.637 0.234,-0.545L0.234,-0.432L0.37,-0.432L0.37,-0.389L0.234,-0.389L0.234,0.002L0.098,0.002C0.098,-0.023 0.097,-0.083 0.097,-0.178C0.097,-0.273 0.097,-0.343 0.097,-0.388L0.011,-0.388L0.01,-0.432L0.097,-0.432L0.097,-0.516C0.097,-0.573 0.115,-0.62 0.152,-0.657C0.189,-0.694 0.238,-0.712 0.301,-0.712Z" style="fill:white;fill-rule:nonzero;"/>
                </g>
                <g transform="matrix(333.333,0,0,333.333,641.182,981.02)">
                    <path d="M0.256,-0.434C0.302,-0.433 0.343,-0.422 0.377,-0.401C0.412,-0.38 0.43,-0.346 0.43,-0.3L0.43,-0.065C0.43,-0.03 0.446,-0.016 0.478,-0.025L0.478,-0.009C0.455,0.009 0.42,0.018 0.371,0.018C0.327,0.018 0.302,0.001 0.294,-0.033C0.271,-0.01 0.239,0.002 0.199,0.002C0.14,0.002 0.095,-0.011 0.065,-0.037C0.035,-0.062 0.024,-0.094 0.031,-0.132C0.036,-0.155 0.048,-0.174 0.068,-0.188C0.088,-0.202 0.11,-0.212 0.133,-0.217C0.157,-0.223 0.185,-0.232 0.216,-0.245C0.247,-0.258 0.273,-0.274 0.293,-0.294C0.293,-0.308 0.293,-0.32 0.292,-0.33C0.292,-0.34 0.291,-0.351 0.288,-0.363C0.285,-0.375 0.281,-0.384 0.274,-0.392C0.268,-0.399 0.259,-0.403 0.249,-0.405C0.229,-0.41 0.21,-0.406 0.193,-0.394C0.176,-0.381 0.17,-0.359 0.175,-0.326C0.177,-0.307 0.168,-0.294 0.146,-0.285C0.123,-0.276 0.103,-0.279 0.086,-0.294C0.07,-0.308 0.066,-0.332 0.074,-0.364C0.08,-0.386 0.101,-0.403 0.138,-0.416C0.175,-0.428 0.214,-0.434 0.256,-0.434ZM0.293,-0.261C0.279,-0.248 0.259,-0.235 0.235,-0.222C0.211,-0.208 0.192,-0.195 0.179,-0.183C0.165,-0.17 0.156,-0.154 0.15,-0.134C0.142,-0.101 0.146,-0.075 0.161,-0.057C0.177,-0.039 0.2,-0.03 0.229,-0.03C0.255,-0.03 0.276,-0.044 0.293,-0.071L0.293,-0.261Z" style="fill:white;fill-rule:nonzero;"/>
                </g>
                <g transform="matrix(333.333,0,0,333.333,803.617,981.02)">
                    <path d="M0.23,-0.42C0.361,-0.42 0.426,-0.351 0.426,-0.212L0.171,-0.212L0.171,-0.209C0.171,-0.163 0.182,-0.123 0.203,-0.089C0.225,-0.056 0.25,-0.039 0.28,-0.039C0.297,-0.039 0.313,-0.042 0.327,-0.047C0.341,-0.052 0.351,-0.057 0.358,-0.063C0.365,-0.069 0.373,-0.076 0.383,-0.085C0.385,-0.087 0.386,-0.088 0.387,-0.089L0.397,-0.077C0.356,-0.024 0.305,0.002 0.244,0.002C0.178,0.002 0.125,-0.018 0.087,-0.058C0.049,-0.098 0.029,-0.148 0.029,-0.209C0.029,-0.267 0.049,-0.317 0.088,-0.358C0.128,-0.399 0.175,-0.42 0.23,-0.42ZM0.27,-0.376C0.244,-0.376 0.223,-0.364 0.206,-0.339C0.188,-0.314 0.177,-0.282 0.173,-0.243L0.338,-0.243C0.341,-0.332 0.318,-0.376 0.27,-0.376Z" style="fill:white;fill-rule:nonzero;"/>
                </g>
                <g transform="matrix(333.333,0,0,333.333,954.985,981.02)">
                    <path d="M0.056,-0.72L0.068,-0.72C0.073,-0.645 0.115,-0.607 0.193,-0.607L0.193,0.002L0.056,0.002L0.056,-0.72Z" style="fill:white;fill-rule:nonzero;"/>
                </g>
                <g transform="matrix(333.333,0,0,333.333,1137.28,981.02)">
                    <path d="M0.317,-0.66L0.577,0.003L0.427,0.003L0.346,-0.203L0.137,-0.203L0.057,0.003L-0.011,0.003L0.207,-0.556L0.184,-0.616C0.249,-0.632 0.294,-0.647 0.317,-0.66ZM0.241,-0.469L0.162,-0.266L0.321,-0.266L0.241,-0.469Z" style="fill:white;fill-rule:nonzero;"/>
                </g>
                <g transform="matrix(333.333,0,0,333.333,1326.08,981.02)">
                    <path d="M0.056,-0.72L0.068,-0.72C0.073,-0.645 0.115,-0.607 0.193,-0.607L0.193,0.002L0.056,0.002L0.056,-0.72Z" style="fill:white;fill-rule:nonzero;"/>
                </g>
                <g transform="matrix(333.333,0,0,333.333,1408.44,981.02)">
                    <path d="M0.05,-0.739L0.063,-0.739C0.066,-0.694 0.08,-0.661 0.104,-0.64C0.129,-0.618 0.157,-0.607 0.188,-0.607L0.188,-0.387C0.213,-0.409 0.251,-0.42 0.301,-0.42C0.356,-0.42 0.403,-0.399 0.442,-0.358C0.481,-0.317 0.501,-0.267 0.501,-0.209C0.501,-0.148 0.482,-0.096 0.443,-0.054C0.405,-0.011 0.353,0.01 0.286,0.01C0.244,0.01 0.212,-0.005 0.188,-0.034L0.188,0.018L0.169,0.018C0.167,0.005 0.153,-0.005 0.126,-0.012C0.1,-0.019 0.075,-0.022 0.05,-0.021L0.05,-0.739ZM0.262,-0.387C0.229,-0.387 0.204,-0.372 0.188,-0.343L0.188,-0.089C0.204,-0.052 0.225,-0.034 0.251,-0.034C0.281,-0.034 0.307,-0.052 0.328,-0.087C0.35,-0.122 0.36,-0.163 0.36,-0.209C0.36,-0.265 0.352,-0.309 0.334,-0.34C0.316,-0.371 0.292,-0.387 0.262,-0.387Z" style="fill:white;fill-rule:nonzero;"/>
                </g>
                <g transform="matrix(333.333,0,0,333.333,1584.87,981.02)">
                    <path d="M0.23,-0.42C0.361,-0.42 0.426,-0.351 0.426,-0.212L0.171,-0.212L0.171,-0.209C0.171,-0.163 0.182,-0.123 0.203,-0.089C0.225,-0.056 0.25,-0.039 0.28,-0.039C0.297,-0.039 0.313,-0.042 0.327,-0.047C0.341,-0.052 0.351,-0.057 0.358,-0.063C0.365,-0.069 0.373,-0.076 0.383,-0.085C0.385,-0.087 0.386,-0.088 0.387,-0.089L0.397,-0.077C0.356,-0.024 0.305,0.002 0.244,0.002C0.178,0.002 0.125,-0.018 0.087,-0.058C0.049,-0.098 0.029,-0.148 0.029,-0.209C0.029,-0.267 0.049,-0.317 0.088,-0.358C0.128,-0.399 0.175,-0.42 0.23,-0.42ZM0.27,-0.376C0.244,-0.376 0.223,-0.364 0.206,-0.339C0.188,-0.314 0.177,-0.282 0.173,-0.243L0.338,-0.243C0.341,-0.332 0.318,-0.376 0.27,-0.376Z" style="fill:white;fill-rule:nonzero;"/>
                </g>
                <g transform="matrix(333.333,0,0,333.333,1736.23,981.02)">
                    <path d="M0.166,-0.454L0.188,-0.454L0.188,-0.369C0.201,-0.384 0.217,-0.397 0.236,-0.407C0.256,-0.417 0.276,-0.422 0.298,-0.421C0.336,-0.419 0.364,-0.407 0.384,-0.385C0.404,-0.363 0.412,-0.336 0.409,-0.302C0.407,-0.278 0.394,-0.263 0.37,-0.256C0.347,-0.248 0.328,-0.252 0.315,-0.267C0.306,-0.278 0.303,-0.293 0.309,-0.313C0.317,-0.344 0.31,-0.366 0.286,-0.379C0.264,-0.391 0.242,-0.389 0.22,-0.373C0.203,-0.361 0.192,-0.343 0.188,-0.319L0.188,0.002L0.05,0.002L0.05,-0.399C0.085,-0.398 0.115,-0.405 0.141,-0.421C0.158,-0.432 0.166,-0.443 0.166,-0.454Z" style="fill:white;fill-rule:nonzero;"/>
                </g>
                <g transform="matrix(333.333,0,0,333.333,1879.46,981.02)">
                    <path d="M0.205,-0.625L0.229,-0.625L0.229,-0.432L0.335,-0.432L0.335,-0.389L0.229,-0.389L0.229,-0.113C0.229,-0.083 0.237,-0.061 0.253,-0.046C0.27,-0.031 0.29,-0.027 0.314,-0.034C0.339,-0.041 0.36,-0.058 0.38,-0.086L0.389,-0.08C0.388,-0.079 0.386,-0.075 0.381,-0.067C0.377,-0.06 0.373,-0.054 0.37,-0.048C0.366,-0.043 0.36,-0.036 0.352,-0.028C0.343,-0.021 0.334,-0.014 0.324,-0.009C0.314,-0.004 0.302,0 0.286,0.004C0.27,0.008 0.252,0.01 0.232,0.01C0.197,0.01 0.164,-0.002 0.134,-0.026C0.105,-0.05 0.09,-0.086 0.09,-0.135L0.09,-0.388L0.016,-0.388L0.016,-0.432L0.09,-0.432L0.09,-0.558C0.115,-0.557 0.141,-0.562 0.167,-0.574C0.192,-0.585 0.205,-0.602 0.205,-0.625Z" style="fill:white;fill-rule:nonzero;"/>
                </g>
                <g transform="matrix(333.333,0,0,333.333,2012.28,981.02)">
                    <path d="M0.07,-0.614C0.084,-0.628 0.1,-0.635 0.119,-0.635C0.138,-0.635 0.154,-0.628 0.168,-0.614C0.182,-0.601 0.188,-0.584 0.188,-0.565C0.188,-0.547 0.182,-0.53 0.168,-0.517C0.154,-0.503 0.138,-0.496 0.119,-0.496C0.1,-0.496 0.084,-0.503 0.07,-0.517C0.057,-0.53 0.05,-0.547 0.05,-0.565C0.05,-0.584 0.057,-0.601 0.07,-0.614ZM0.165,-0.454L0.188,-0.454L0.188,0.002L0.05,0.002L0.05,-0.399C0.074,-0.399 0.099,-0.403 0.125,-0.414C0.152,-0.424 0.165,-0.437 0.165,-0.454Z" style="fill:white;fill-rule:nonzero;"/>
                </g>
            </g>
        </g>
    </g>
</svg>
